HIERARCHY
ROOT Hips
{
	OFFSET 0.000000 0.000000 0.000000
	CHANNELS 6 Xposition Yposition Zposition Zrotation Yrotation Xrotation 
	JOINT LHipJoint
	{
		OFFSET 0.000000 0.000000 0.000000
		CHANNELS 3 Zrotation Yrotation Xrotation
		JOINT LeftUpLeg
		{
			OFFSET 1.363060 -1.794630 0.839290
			CHANNELS 3 Zrotation Yrotation Xrotation
			JOINT LeftLeg
			{
				OFFSET 2.448110 -6.726130 0.000000
				CHANNELS 3 Zrotation Yrotation Xrotation
				JOINT LeftFoot
				{
					OFFSET 2.562200 -7.039590 0.000000
					CHANNELS 3 Zrotation Yrotation Xrotation
					JOINT LeftToeBase
					{
						OFFSET 0.157640 -0.433110 2.322550
						CHANNELS 3 Zrotation Yrotation Xrotation
						End Site
						{
							OFFSET 0.000000 0.000000 0.000000
						}
					}
				}
			}
		}
	}
	JOINT RHipJoint
	{
		OFFSET 0.000000 0.000000 0.000000
		CHANNELS 3 Zrotation Yrotation Xrotation
		JOINT RightUpLeg
		{
			OFFSET -1.305520 -1.794630 0.839290
			CHANNELS 3 Zrotation Yrotation Xrotation
			JOINT RightLeg
			{
				OFFSET -2.542530 -6.985550 0.000000
				CHANNELS 3 Zrotation Yrotation Xrotation
				JOINT RightFoot
				{
					OFFSET -2.568260 -7.056230 0.000000
					CHANNELS 3 Zrotation Yrotation Xrotation
					JOINT RightToeBase
					{
						OFFSET -0.164730 -0.452590 2.363150
						CHANNELS 3 Zrotation Yrotation Xrotation
						End Site
						{
							OFFSET 0.000000 0.000000 0.000000
						}
					}
				}
			}
		}
	}
	JOINT LowerBack
	{
		OFFSET 0.000000 0.000000 0.000000
		CHANNELS 3 Zrotation Yrotation Xrotation
		JOINT Spine
		{
			OFFSET 0.028270 2.035590 -0.193380
			CHANNELS 3 Zrotation Yrotation Xrotation
			JOINT Spine1
			{
				OFFSET 0.056720 2.048850 -0.042750
				CHANNELS 3 Zrotation Yrotation Xrotation
				JOINT Neck
				{
					OFFSET 0.000000 0.000000 0.000000
					CHANNELS 3 Zrotation Yrotation Xrotation
					JOINT Neck1
					{
						OFFSET -0.054170 1.746240 0.172020
						CHANNELS 3 Zrotation Yrotation Xrotation
						JOINT Head
						{
							OFFSET 0.104070 1.761360 -0.123970
							CHANNELS 3 Zrotation Yrotation Xrotation
							End Site
							{
								OFFSET 0.000000 0.000000 0.000000
							}
						}
					}
				}
				JOINT LeftShoulder
				{
					OFFSET 0.000000 0.000000 0.000000
					CHANNELS 3 Zrotation Yrotation Xrotation
					JOINT LeftArm
					{
						OFFSET 3.362410 1.200890 -0.311210
						CHANNELS 3 Zrotation Yrotation Xrotation
						JOINT LeftForeArm
						{
							OFFSET 4.983000 -0.000000 -0.000000
							CHANNELS 3 Zrotation Yrotation Xrotation
							JOINT LeftHand
							{
								OFFSET 3.483560 -0.000000 -0.000000
								CHANNELS 3 Zrotation Yrotation Xrotation
								JOINT LeftFingerBase
								{
									OFFSET 0.000000 0.000000 0.000000
									CHANNELS 3 Zrotation Yrotation Xrotation
									JOINT LeftHandIndex1
									{
										OFFSET 0.715260 -0.000000 -0.000000
										CHANNELS 3 Zrotation Yrotation Xrotation
										End Site
										{
											OFFSET 0.000000 0.000000 0.000000
										}
									}
								}
								JOINT LThumb
								{
									OFFSET 0.000000 0.000000 0.000000
									CHANNELS 3 Zrotation Yrotation Xrotation
									End Site
									{
										OFFSET 0.000000 0.000000 0.000000
									}
								}
							}
						}
					}
				}
				JOINT RightShoulder
				{
					OFFSET 0.000000 0.000000 0.000000
					CHANNELS 3 Zrotation Yrotation Xrotation
					JOINT RightArm
					{
						OFFSET -3.136600 1.374050 -0.404650
						CHANNELS 3 Zrotation Yrotation Xrotation
						JOINT RightForeArm
						{
							OFFSET -5.241900 -0.000000 -0.000000
							CHANNELS 3 Zrotation Yrotation Xrotation
							JOINT RightHand
							{
								OFFSET -3.444170 -0.000000 -0.000000
								CHANNELS 3 Zrotation Yrotation Xrotation
								JOINT RightFingerBase
								{
									OFFSET 0.000000 0.000000 0.000000
									CHANNELS 3 Zrotation Yrotation Xrotation
									JOINT RightHandIndex1
									{
										OFFSET -0.622530 -0.000000 -0.000000
										CHANNELS 3 Zrotation Yrotation Xrotation
										End Site
										{
											OFFSET 0.000000 0.000000 0.000000
										}
									}
								}
								JOINT RThumb
								{
									OFFSET 0.000000 0.000000 0.000000
									CHANNELS 3 Zrotation Yrotation Xrotation
									End Site
									{
										OFFSET 0.000000 0.000000 0.000000
									}
								}
							}
						}
					}
				}
			}
		}
	}
}
MOTION
Frames: 10
Frame Time: 0.008333
11.432252 18.134910 24.109306 2.446683 7.589881 8.570018 -2.888293 2.215114 6.009997 -15.768438 -0.155580 9.337454 -2.112660 4.713246 16.700870 0.665605 5.684915 28.909853 0.075540 1.616969 4.452285 0.045702 3.517241 -5.742525 10.860102 5.733372 -35.922552 2.740836 -11.195287 22.644426 -1.197674 -6.181285 25.033557 -0.002585 0.035460 -0.097394 0.289709 -2.265022 1.375303 1.618180 -2.612770 -4.191915 1.384471 -2.227213 -2.069368 -3.580242 -0.710921 -10.344691 4.708136 -0.900894 10.428721 0.636607 -0.301025 5.487070 3.643949 -10.546971 1.021972 -73.974142 -27.084463 30.316810 47.575522 -43.166760 -26.564149 -0.113554 0.422713 -23.985861 32.458505 -17.270845 -10.973649 -7.125000 0.000000 0.000000 2.838390 9.186528 -2.351788 -3.711367 8.896926 1.182643 96.311923 -27.798549 -41.110108 -1.776596 7.624659 -1.436570 2.460581 0.282628 37.444317 -18.825349 -35.849470 12.804739 7.125000 0.000000 0.000000 19.125923 -68.127893 -10.775956
11.442507 18.137474 24.244430 2.249683 7.437809 8.476241 -2.899212 2.125393 5.868594 -15.576982 0.010250 8.497622 -1.614249 5.641600 18.861105 0.286739 7.710172 29.821042 0.153821 2.388507 6.586655 0.052525 3.492660 -5.659655 11.136901 5.826296 -35.840734 2.619519 -11.407050 23.296495 -1.177943 -6.023804 24.817297 -0.006754 0.380781 -1.046382 0.642744 -2.198211 1.422745 1.634242 -2.526029 -4.171924 1.294366 -2.176380 -1.974481 -3.466130 -0.689525 -10.543929 4.539138 -0.861787 10.424687 0.513221 -0.287675 5.536611 3.674085 -10.518608 1.005714 -74.299439 -26.698155 30.287677 47.943972 -43.389388 -26.906426 -0.118789 0.397620 -24.105490 32.595324 -17.238842 -11.001546 -7.125000 0.000000 0.000000 2.943769 9.223384 -2.437165 -3.681756 8.903870 1.179534 96.120658 -27.396448 -41.609452 -1.765951 7.494097 -1.432851 2.468490 0.223789 38.376826 -19.034753 -35.742543 12.916017 7.125000 0.000000 0.000000 18.701568 -68.081280 -10.510867
11.452602 18.139915 24.378062 2.062617 7.302078 8.378414 -2.901001 2.042213 5.722165 -15.398218 0.162255 7.703579 -1.094924 6.538373 20.937646 -0.113975 9.836305 30.662769 0.232851 3.087321 8.523544 0.050399 3.467069 -5.575014 11.423521 5.883705 -35.778796 2.499167 -11.620632 23.972024 -1.201702 -5.738490 24.611212 -0.009323 0.619164 -1.701495 0.988697 -2.132593 1.482259 1.647286 -2.439560 -4.150953 1.199285 -2.125474 -1.891081 -3.383642 -0.661921 -10.703112 4.405992 -0.815546 10.403600 0.421046 -0.270496 5.564949 3.698716 -10.493222 0.992451 -74.618742 -26.302353 30.276871 48.294176 -43.603768 -27.230427 -0.122150 0.372446 -24.224105 32.686303 -17.210179 -11.011243 -7.125000 0.000000 0.000000 3.018241 9.267028 -2.496444 -3.658857 8.910621 1.175894 95.954659 -27.036675 -41.672212 -1.768501 7.445122 -1.434219 2.473330 0.182404 38.863224 -19.219641 -35.596982 12.999075 7.125000 0.000000 0.000000 18.262451 -67.989455 -10.220398
11.462203 18.141976 24.507103 1.906115 7.216632 8.268126 -2.874694 1.979160 5.560272 -15.258507 0.271722 7.050427 -0.511248 7.337974 22.756662 -0.581914 12.272826 31.290770 0.314192 3.562370 9.852802 0.020741 3.438370 -5.484922 11.740358 5.831834 -35.778030 2.381782 -11.839811 24.719734 -1.359277 -5.059842 24.436433 -0.006973 0.528510 -1.452372 1.312855 -2.070644 1.578916 1.651046 -2.353928 -4.126969 1.088891 -2.074347 -1.843025 -3.398463 -0.615216 -10.739051 4.383160 -0.747356 10.330042 0.424905 -0.241535 5.528049 3.706411 -10.476997 0.988400 -74.919601 -25.877337 30.322457 48.588239 -43.792771 -27.498193 -0.119743 0.347021 -24.339598 32.636240 -17.191797 -10.964940 -7.125000 0.000000 0.000000 2.997618 9.331560 -2.475421 -3.656610 8.916777 1.170621 95.866396 -26.807142 -40.391640 -1.811645 7.647184 -1.451237 2.468729 0.194724 37.976969 -19.329093 -35.332550 12.995305 7.125000 0.000000 0.000000 17.777911 -67.758517 -9.851838
11.471804 18.144037 24.636144 1.749612 7.131186 8.157837 -2.848388 1.916107 5.398379 -15.118796 0.381190 6.397275 0.072428 8.137576 24.575678 -1.049853 14.709347 31.918771 0.395533 4.037418 11.182060 -0.008917 3.409671 -5.394830 12.057195 5.779962 -35.777263 2.264396 -12.058990 25.467444 -1.516852 -4.381194 24.261655 -0.004622 0.437855 -1.203250 1.637014 -2.008695 1.675572 1.654806 -2.268297 -4.102985 0.978497 -2.023220 -1.794968 -3.413284 -0.568512 -10.774989 4.360328 -0.679165 10.256483 0.428764 -0.212573 5.491148 3.714105 -10.460771 0.984350 -75.220461 -25.452321 30.368042 48.882303 -43.981773 -27.765960 -0.117337 0.321597 -24.455091 32.586176 -17.173414 -10.918637 -7.125000 0.000000 0.000000 2.976995 9.396091 -2.454398 -3.654363 8.922934 1.165348 95.778134 -26.577608 -39.111068 -1.854790 7.849247 -1.468254 2.464128 0.207045 37.090714 -19.438545 -35.068119 12.991536 7.125000 0.000000 0.000000 17.293371 -67.527579 -9.483277
11.483697 18.145002 24.762994 1.667915 7.063047 7.986814 -2.774277 1.855866 5.227819 -15.174583 0.315024 6.028593 0.677687 8.825721 26.274036 -1.592317 16.970624 31.754134 0.411896 4.118871 11.411497 -0.053645 3.376082 -5.297832 12.345598 5.601457 -35.762677 2.141800 -12.256213 26.205609 -1.719143 -3.575316 24.164758 -0.003106 0.148536 -0.408260 1.886115 -1.945159 1.882352 1.646983 -2.173093 -4.081956 0.872819 -1.965290 -1.804199 -3.548399 -0.632296 -10.805356 4.380827 -0.743537 10.209378 0.485913 -0.251313 5.482101 3.707531 -10.455910 0.972422 -75.580493 -25.018975 30.499126 49.019122 -44.105334 -27.886432 -0.119486 0.306075 -24.543537 32.601367 -17.153935 -10.906514 -7.125000 0.000000 0.000000 2.996965 9.433472 -2.468654 -3.671377 8.942669 1.161177 95.700905 -26.267064 -38.357439 -1.907720 7.991216 -1.483786 2.455530 0.205314 36.566488 -19.440922 -34.817205 12.917077 7.125000 0.000000 0.000000 16.981005 -67.273312 -9.212204
11.495611 18.145958 24.889824 1.586929 6.995073 7.815212 -2.699711 1.795652 5.057176 -15.232232 0.247185 5.662620 1.283152 9.512805 27.971244 -2.135490 19.230232 31.581948 0.427641 4.196574 11.630461 -0.098515 3.342446 -5.200768 12.633730 5.421745 -35.747960 2.019155 -12.453228 26.943683 -1.921860 -2.768227 24.068603 -0.001598 -0.142676 0.391929 2.134502 -1.881607 2.090180 1.639050 -2.077798 -4.060955 0.767186 -1.907295 -1.813976 -3.684660 -0.697132 -10.835670 4.401739 -0.809172 10.162524 0.543570 -0.290697 5.473320 3.700821 -10.451157 0.960420 -75.941088 -24.585551 30.631024 49.154444 -44.228272 -28.005501 -0.121680 0.290647 -24.631724 32.617180 -17.134445 -10.894716 -7.125000 0.000000 0.000000 3.017323 9.470594 -2.483246 -3.688573 8.962534 1.157017 95.623781 -25.955747 -37.608828 -1.960744 8.132612 -1.499304 2.446894 0.203450 36.045710 -19.442280 -34.566420 12.841946 7.125000 0.000000 0.000000 16.670279 -67.018823 -8.942059
11.510928 18.153904 25.018873 1.647021 6.917248 7.559909 -2.600191 1.730346 4.883412 -15.497756 0.186265 5.456860 1.900869 10.145424 29.673538 -2.787151 21.489966 30.848331 0.434770 4.231231 11.728116 -0.129660 3.296508 -5.084528 12.778628 5.181294 -35.585505 1.891687 -12.603113 27.595003 -2.096812 -2.066247 23.999526 -0.003648 -0.344824 0.947446 2.240035 -1.835375 2.421841 1.618772 -1.998899 -4.040560 0.644651 -1.853970 -1.885675 -3.759583 -0.765568 -10.815565 4.408994 -0.891662 10.106195 0.574661 -0.335890 5.453833 3.691724 -10.447585 0.944767 -76.324628 -24.076063 30.734511 49.266434 -44.343976 -28.103472 -0.126050 0.273808 -24.707247 32.618321 -17.044557 -10.835858 -7.125000 0.000000 0.000000 3.039964 9.591885 -2.494410 -3.707942 8.992782 1.160212 95.552989 -25.595863 -37.262808 -1.977037 8.168665 -1.512090 2.447548 0.189674 35.915976 -19.533958 -34.502396 12.883619 7.125000 0.000000 0.000000 16.453413 -66.971247 -8.804253
11.527467 18.164360 25.148718 1.757755 6.835886 7.274559 -2.491714 1.663213 4.708527 -15.837903 0.127830 5.308613 2.522985 10.758492 31.377658 -3.477757 23.749744 29.913174 0.438806 4.250436 11.782225 -0.155878 3.246153 -4.961405 12.872110 4.919040 -35.370017 1.762488 -12.736081 28.215181 -2.261797 -1.402000 23.940169 -0.006974 -0.515001 1.415133 2.294289 -1.795360 2.797954 1.594064 -1.925886 -4.020383 0.516049 -1.802322 -1.979604 -3.812488 -0.835296 -10.777360 4.411346 -0.980204 10.046464 0.596216 -0.383169 5.430505 3.681769 -10.444436 0.927804 -76.716403 -23.539271 30.827799 49.370049 -44.457082 -28.193869 -0.131201 0.256461 -24.778224 32.614195 -16.929398 -10.760105 -7.125000 0.000000 0.000000 3.063426 9.743389 -2.504345 -3.728089 9.026759 1.166047 95.484470 -25.218543 -37.061306 -1.980145 8.166902 -1.523896 2.451536 0.171623 35.926618 -19.658059 -34.505413 12.967221 7.125000 0.000000 0.000000 16.270242 -66.997946 -8.713954
11.541780 18.178976 25.280305 1.844632 6.741729 7.000057 -2.387703 1.595551 4.534910 -16.134239 0.117789 5.094751 3.151197 11.339209 33.064507 -4.204800 26.089532 28.879271 0.444869 4.279136 11.863242 -0.164326 3.192119 -4.834520 12.980124 4.707483 -35.099477 1.638343 -12.849048 28.781334 -2.387498 -0.836649 23.744728 -0.006929 -0.502218 1.380031 2.330759 -1.756498 3.138680 1.571192 -1.857319 -3.995438 0.401812 -1.751690 -2.055026 -3.869546 -0.875337 -10.684606 4.488788 -1.040290 9.935941 0.663287 -0.411776 5.355215 3.664360 -10.439569 0.918874 -77.056955 -23.016153 30.908401 49.398831 -44.538550 -28.218709 -0.134336 0.241877 -24.874824 32.546669 -16.857773 -10.684865 -7.125000 0.000000 0.000000 3.037318 9.855289 -2.476233 -3.749108 9.055902 1.176240 95.417359 -24.828604 -36.596407 -1.968456 8.176953 -1.536624 2.459302 0.163206 35.691445 -19.863646 -34.545365 13.117124 7.125000 0.000000 0.000000 16.018956 -67.084139 -8.607116
